<svg xmlns="http://www.w3.org/2000/svg" viewBox="0 0 1280 320" width="1280" height="320">
<rect width="1280" height="320" rx="24" fill="#0d1117"/>
<g stroke="#161b22" stroke-width="1"><path d="M0 0 V320"/><path d="M40 0 V320"/><path d="M80 0 V320"/><path d="M120 0 V320"/><path d="M160 0 V320"/><path d="M200 0 V320"/><path d="M240 0 V320"/><path d="M280 0 V320"/><path d="M320 0 V320"/><path d="M360 0 V320"/><path d="M400 0 V320"/><path d="M440 0 V320"/><path d="M480 0 V320"/><path d="M520 0 V320"/><path d="M560 0 V320"/><path d="M600 0 V320"/><path d="M640 0 V320"/><path d="M680 0 V320"/><path d="M720 0 V320"/><path d="M760 0 V320"/><path d="M800 0 V320"/><path d="M840 0 V320"/><path d="M880 0 V320"/><path d="M920 0 V320"/><path d="M960 0 V320"/><path d="M1000 0 V320"/><path d="M1040 0 V320"/><path d="M1080 0 V320"/><path d="M1120 0 V320"/><path d="M1160 0 V320"/><path d="M1200 0 V320"/><path d="M1240 0 V320"/><path d="M1280 0 V320"/><path d="M0 0 H1280"/><path d="M0 40 H1280"/><path d="M0 80 H1280"/><path d="M0 120 H1280"/><path d="M0 160 H1280"/><path d="M0 200 H1280"/><path d="M0 240 H1280"/><path d="M0 280 H1280"/><path d="M0 320 H1280"/></g>
<g transform="translate(120 64) scale(1.5)">
<path d="M64 8 L110 24 V60 C110 90 90 110 64 120 C38 110 18 90 18 60 V24 Z" fill="none" stroke="#e6edf3" stroke-width="7" stroke-linejoin="round"/>
<circle cx="64" cy="62" r="22" fill="none" stroke="#e6edf3" stroke-width="5"/>
<path d="M64 30 V44 M64 80 V94 M32 62 H46 M82 62 H96" stroke="#e6edf3" stroke-width="5" stroke-linecap="round"/>
<circle cx="64" cy="62" r="7" fill="#ff7b72"/></g>
<g font-family="-apple-system,BlinkMacSystemFont,'Segoe UI','Noto Sans',Helvetica,Arial,sans-serif" fill="#e6edf3">
<text x="380" y="160" font-size="76" font-weight="800" letter-spacing="-1">AI Security Arsenal</text>
<text x="384" y="214" font-size="30" fill="#9198a1">Open source tools to <tspan fill="#ff7b72" font-weight="700">attack</tspan>, <tspan fill="#ff7b72" font-weight="700">defend</tspan> and <tspan fill="#ff7b72" font-weight="700">hack with</tspan> AI</text>
</g></svg>